<svg width="33" height="33" viewBox="0 0 33 33" fill="none" xmlns="http://www.w3.org/2000/svg">
<path d="M4.3 19.6C6.12254 19.6 7.6 18.1225 7.6 16.3C7.6 14.4775 6.12254 13 4.3 13C2.47746 13 1 14.4775 1 16.3C1 18.1225 2.47746 19.6 4.3 19.6Z" fill="currentColor"/>
<path d="M15.9 19.6C17.7225 19.6 19.2 18.1225 19.2 16.3C19.2 14.4775 17.7225 13 15.9 13C14.0774 13 12.6 14.4775 12.6 16.3C12.6 18.1225 14.0774 19.6 15.9 19.6Z" fill="currentColor"/>
<path d="M27.5 19.6C29.3226 19.6 30.8 18.1225 30.8 16.3C30.8 14.4775 29.3226 13 27.5 13C25.6775 13 24.2 14.4775 24.2 16.3C24.2 18.1225 25.6775 19.6 27.5 19.6Z" fill="currentColor"/>
</svg>
