<svg width="21" height="21" viewBox="0 0 21 21" fill="none" xmlns="http://www.w3.org/2000/svg">
<path d="M10.5 13.6281C10.3833 13.6281 10.274 13.61 10.1719 13.5739C10.0698 13.5377 9.975 13.4756 9.8875 13.3875L6.7375 10.2375C6.5625 10.0625 6.4785 9.85834 6.4855 9.625C6.4925 9.39167 6.5765 9.1875 6.7375 9.0125C6.9125 8.8375 7.12046 8.7465 7.36138 8.7395C7.60229 8.7325 7.80996 8.81621 7.98438 8.99063L9.625 10.6313V4.375C9.625 4.12709 9.709 3.91942 9.877 3.752C10.045 3.58459 10.2527 3.50059 10.5 3.5C10.7473 3.49942 10.9553 3.58342 11.1239 3.752C11.2925 3.92059 11.3762 4.12825 11.375 4.375V10.6313L13.0156 8.99063C13.1906 8.81563 13.3986 8.73163 13.6395 8.73863C13.8804 8.74563 14.0881 8.83692 14.2625 9.0125C14.4229 9.1875 14.5069 9.39167 14.5145 9.625C14.5221 9.85834 14.4381 10.0625 14.2625 10.2375L11.1125 13.3875C11.025 13.475 10.9302 13.5371 10.8281 13.5739C10.726 13.6106 10.6167 13.6287 10.5 13.6281ZM5.25 17.5C4.76875 17.5 4.35692 17.3288 4.0145 16.9864C3.67208 16.644 3.50058 16.2318 3.5 15.75V14C3.5 13.7521 3.584 13.5444 3.752 13.377C3.92 13.2096 4.12767 13.1256 4.375 13.125C4.62233 13.1244 4.83029 13.2084 4.99888 13.377C5.16746 13.5456 5.25117 13.7533 5.25 14V15.75H15.75V14C15.75 13.7521 15.834 13.5444 16.002 13.377C16.17 13.2096 16.3777 13.1256 16.625 13.125C16.8723 13.1244 17.0803 13.2084 17.2489 13.377C17.4175 13.5456 17.5012 13.7533 17.5 14V15.75C17.5 16.2313 17.3288 16.6434 16.9864 16.9864C16.644 17.3294 16.2318 17.5006 15.75 17.5H5.25Z" fill="#212121"/>
</svg>
