<svg width="20" height="20" viewBox="0 0 20 20" fill="none" xmlns="http://www.w3.org/2000/svg">
<path d="M18.3333 8.75002V10C18.3333 13.9284 18.3333 15.8925 17.1125 17.1125C15.8933 18.3334 13.9283 18.3334 9.99996 18.3334C6.07163 18.3334 4.10746 18.3334 2.88663 17.1125C1.66663 15.8934 1.66663 13.9284 1.66663 10C1.66663 6.07169 1.66663 4.10752 2.88663 2.88669C4.10829 1.66669 6.07163 1.66669 9.99996 1.66669H11.25" stroke="currentColor" stroke-width="2" stroke-linecap="round"/>
<path d="M13.8766 2.87917L14.4174 2.33833C14.8477 1.90813 15.3915 1.49992 16 1.5C16.6085 1.50008 17.2318 1.90843 17.662 2.33875C18.0922 2.76906 18.5001 3.39152 18.5 4C18.4999 4.60848 18.0919 5.15313 17.6616 5.58333L17.1199 6.12417C17.1199 6.12417 15.9716 6.05667 14.9582 5.0425C13.9441 4.02917 13.8766 2.87917 13.8766 2.87917ZM13.8766 2.87917L8.90574 7.85C8.56908 8.18667 8.40074 8.355 8.25574 8.54083C8.08463 8.76028 7.93908 8.99583 7.81908 9.2475C7.71824 9.46 7.64324 9.68583 7.49241 10.1375L7.00991 11.5833M7.00991 11.5833L6.69824 12.5183C6.66159 12.6274 6.65608 12.7445 6.68234 12.8565C6.7086 12.9685 6.76558 13.071 6.84689 13.1523C6.92819 13.2337 7.03059 13.2908 7.14257 13.3172C7.25454 13.3436 7.37166 13.3382 7.48074 13.3017L8.41658 12.99M7.00991 11.5833L8.41658 12.99M17.1207 6.12333L12.1499 11.0942C11.8132 11.4308 11.6449 11.5992 11.4591 11.7442C11.24 11.9149 11.0031 12.0613 10.7524 12.1808C10.5399 12.2817 10.3141 12.3567 9.86241 12.5075L8.41658 12.99" stroke="currentColor" stroke-width="2"/>
</svg>
