<svg width="24" height="24" viewBox="0 0 24 24" fill="none" xmlns="http://www.w3.org/2000/svg">
<path fill-rule="evenodd" clip-rule="evenodd" d="M2.34499 2.24501C2.49426 2.11534 2.67861 2.03283 2.87476 2.00791C3.07091 1.98299 3.27004 2.01678 3.44699 2.10501L21.447 11.105C21.6134 11.1879 21.7534 11.3156 21.8512 11.4737C21.9491 11.6318 22.0009 11.8141 22.0009 12C22.0009 12.1859 21.9491 12.3682 21.8512 12.5263C21.7534 12.6844 21.6134 12.8121 21.447 12.895L3.44699 21.895C3.27005 21.9835 3.07083 22.0176 2.87453 21.9929C2.67823 21.9681 2.49368 21.8857 2.34423 21.7561C2.19478 21.6264 2.08714 21.4554 2.03494 21.2645C1.98274 21.0737 1.98833 20.8717 2.05099 20.684L4.61299 13H9.99999C10.2652 13 10.5196 12.8946 10.7071 12.7071C10.8946 12.5196 11 12.2652 11 12C11 11.7348 10.8946 11.4804 10.7071 11.2929C10.5196 11.1054 10.2652 11 9.99999 11H4.61299L2.04999 3.31601C1.98765 3.12842 1.98231 2.92656 2.03464 2.73594C2.08696 2.54532 2.19561 2.37448 2.34499 2.24501Z" fill="#212121"/>
</svg>
