<svg width="20" height="20" viewBox="0 0 20 20" fill="none" xmlns="http://www.w3.org/2000/svg">
<path d="M11.937 4.5H8.06203C7.98631 4.20438 7.97914 3.89536 8.04106 3.59654C8.10299 3.29772 8.23237 3.01701 8.41934 2.77582C8.60631 2.53463 8.84591 2.33936 9.11986 2.2049C9.39381 2.07044 9.69486 2.00036 10 2C10.3051 2.00051 10.606 2.07071 10.8799 2.20523C11.1537 2.33975 11.3932 2.53505 11.58 2.77621C11.7669 3.01738 11.8962 3.29804 11.958 3.59679C12.0199 3.89553 12.0127 4.20446 11.937 4.5Z" fill="currentColor"/>
<path d="M4.5 5.5C4.23478 5.5 3.98043 5.39464 3.79289 5.20711C3.60536 5.01957 3.5 4.76522 3.5 4.5C3.5 4.23478 3.60536 3.98043 3.79289 3.79289C3.98043 3.60536 4.23478 3.5 4.5 3.5H15.5C15.7652 3.5 16.0196 3.60536 16.2071 3.79289C16.3946 3.98043 16.5 4.23478 16.5 4.5C16.5 4.76522 16.3946 5.01957 16.2071 5.20711C16.0196 5.39464 15.7652 5.5 15.5 5.5H4.5Z" fill="currentColor"/>
<path fill-rule="evenodd" clip-rule="evenodd" d="M14.5 18.5C14.7652 18.5 15.0196 18.3946 15.2071 18.2071C15.3946 18.0196 15.5 17.7652 15.5 17.5V7C15.5 6.73478 15.3946 6.48043 15.2071 6.29289C15.0196 6.10536 14.7652 6 14.5 6H5.5C5.23478 6 4.98043 6.10536 4.79289 6.29289C4.60536 6.48043 4.5 6.73478 4.5 7V17.5C4.5 17.7652 4.60536 18.0196 4.79289 18.2071C4.98043 18.3946 5.23478 18.5 5.5 18.5H14.5ZM12.5 8.5C12.5 8.36739 12.5527 8.24021 12.6464 8.14645C12.7402 8.05268 12.8674 8 13 8C13.1326 8 13.2598 8.05268 13.3536 8.14645C13.4473 8.24021 13.5 8.36739 13.5 8.5V15.5C13.5 15.6326 13.4473 15.7598 13.3536 15.8536C13.2598 15.9473 13.1326 16 13 16C12.8674 16 12.7402 15.9473 12.6464 15.8536C12.5527 15.7598 12.5 15.6326 12.5 15.5V8.5ZM10 8C9.86739 8 9.74021 8.05268 9.64645 8.14645C9.55268 8.24021 9.5 8.36739 9.5 8.5V15.5C9.5 15.6326 9.55268 15.7598 9.64645 15.8536C9.74021 15.9473 9.86739 16 10 16C10.1326 16 10.2598 15.9473 10.3536 15.8536C10.4473 15.7598 10.5 15.6326 10.5 15.5V8.5C10.5 8.36739 10.4473 8.24021 10.3536 8.14645C10.2598 8.05268 10.1326 8 10 8ZM6.5 8.5C6.5 8.36739 6.55268 8.24021 6.64645 8.14645C6.74021 8.05268 6.86739 8 7 8C7.13261 8 7.25979 8.05268 7.35355 8.14645C7.44732 8.24021 7.5 8.36739 7.5 8.5V15.5C7.5 15.6326 7.44732 15.7598 7.35355 15.8536C7.25979 15.9473 7.13261 16 7 16C6.86739 16 6.74021 15.9473 6.64645 15.8536C6.55268 15.7598 6.5 15.6326 6.5 15.5V8.5Z" fill="currentColor"/>
</svg>
